<svg xmlns="http://www.w3.org/2000/svg" version="1.1" viewBox="0.00 0.00 298.00 300.00" width="48" height="48">
<path fill="#409EFF" d="&#10;  M 145.49 165.91&#10;  A 0.75 0.75 0.0 0 1 144.16 165.89&#10;  Q 142.32 162.31 137.13 153.33&#10;  Q 124.64 131.74 103.95 114.02&#10;  Q 90.98 102.92 74.19 94.80&#10;  C 66.17 90.93 52.81 84.63 45.31 92.77&#10;  Q 39.78 98.76 40.83 107.87&#10;  C 41.62 114.71 46.00 118.44 52.26 120.82&#10;  C 72.70 128.58 89.08 140.09 102.31 157.34&#10;  C 118.41 178.32 129.14 205.33 129.03 232.27&#10;  Q 128.96 249.35 129.02 263.49&#10;  C 129.06 270.89 133.02 277.03 140.45 278.70&#10;  C 147.36 280.24 154.64 276.32 157.34 269.82&#10;  Q 158.56 266.89 158.99 261.51&#10;  Q 159.06 260.61 159.00 238.24&#10;  Q 158.90 204.60 175.57 174.82&#10;  Q 189.08 150.68 209.97 135.03&#10;  A 0.44 0.44 0.0 0 1 210.62 135.19&#10;  Q 211.39 136.71 210.86 139.04&#10;  Q 203.30 171.90 203.98 208.75&#10;  C 204.24 223.21 205.82 238.26 211.71 250.60&#10;  Q 224.68 277.75 257.76 281.56&#10;  Q 264.45 282.33 268.53 281.36&#10;  Q 268.82 281.29 270.49 281.98&#10;  A 0.35 0.35 0.0 0 1 270.59 282.56&#10;  C 259.15 293.06 241.50 298.89 226.02 298.94&#10;  Q 179.20 299.08 72.28 298.95&#10;  Q 62.15 298.94 53.07 295.78&#10;  A 0.57 0.57 0.0 0 1 52.89 294.80&#10;  Q 55.87 292.27 57.93 289.92&#10;  Q 75.89 269.54 83.28 246.10&#10;  Q 87.02 234.26 89.25 218.63&#10;  C 91.00 206.39 89.90 196.53 76.57 194.17&#10;  A 5.12 5.04 -41.9 0 0 75.30 194.11&#10;  Q 66.11 194.80 62.08 202.59&#10;  Q 60.48 205.70 59.79 213.12&#10;  Q 59.01 221.51 56.10 231.61&#10;  Q 49.60 254.20 32.73 270.98&#10;  Q 29.17 274.52 25.37 277.20&#10;  A 2.23 2.22 -38.3 0 1 22.41 276.86&#10;  Q 7.67 260.20 3.04 238.78&#10;  Q 1.09 229.78 1.06 215.75&#10;  Q 0.94 163.85 1.12 85.69&#10;  Q 1.13 81.72 1.99 72.15&#10;  Q 2.75 63.80 4.04 58.76&#10;  C 10.94 31.83 32.25 8.60 60.12 2.84&#10;  C 67.15 1.39 76.20 0.93 83.68 0.97&#10;  Q 98.97 1.06 207.56 0.96&#10;  Q 229.19 0.94 237.24 2.60&#10;  C 267.80 8.91 289.18 32.92 295.48 63.09&#10;  Q 297.26 71.61 297.05 92.03&#10;  Q 296.98 98.73 297.00 219.07&#10;  C 297.00 225.81 297.84 234.05 291.78 238.73&#10;  Q 280.59 247.39 266.76 249.53&#10;  C 254.15 251.49 242.13 244.90 237.44 233.06&#10;  Q 235.77 228.84 234.75 223.00&#10;  C 233.12 213.73 232.68 203.39 233.26 193.63&#10;  Q 235.48 156.54 246.56 120.51&#10;  C 249.92 109.59 253.65 98.84 243.16 90.68&#10;  C 238.15 86.78 227.77 89.86 222.36 92.12&#10;  Q 198.60 102.03 180.49 119.01&#10;  Q 159.44 138.75 147.35 161.45&#10;  C 146.44 163.16 145.98 165.01 145.49 165.91&#10;  Z&#10;  M 85.15 162.14&#10;  Q 85.57 155.92 83.57 151.89&#10;  C 79.09 142.90 66.49 134.80 56.97 141.51&#10;  C 47.95 147.87 47.99 161.13 56.24 168.43&#10;  C 61.51 173.09 68.03 178.11 75.52 175.32&#10;  C 80.83 173.33 84.73 168.22 85.15 162.14&#10;  Z"/>
</svg>